<?xml version="1.0" ?>
<svg class="icon icon-tabler icon-tabler-puzzle-2" fill="none" height="24" stroke="currentColor" stroke-linecap="round" stroke-linejoin="round" stroke-width="2"
     viewBox="0 0 24 24" width="24" xmlns="http://www.w3.org/2000/svg">
    <path d="M0 0h24v24H0z" fill="none" stroke="none"/>
    <rect height="16" rx="2" width="16" x="4" y="4"/>
    <path d="M12 4v2.5a0.5 .5 0 0 1 -.5 .5a1.5 1.5 0 0 0 0 3a0.5 .5 0 0 1 .5 .5v1.5"/>
    <path d="M12 12v1.5a0.5 .5 0 0 0 .5 .5a1.5 1.5 0 0 1 0 3a0.5 .5 0 0 0 -.5 .5v2.5"/>
    <path d="M20 12h-2.5a0.5 .5 0 0 1 -.5 -.5a1.5 1.5 0 0 0 -3 0a0.5 .5 0 0 1 -.5 .5h-1.5"/>
    <path d="M12 12h-1.5a0.5 .5 0 0 0 -.5 .5a1.5 1.5 0 0 1 -3 0a0.5 .5 0 0 0 -.5 -.5h-2.5"/>
</svg>
